# Blender v2.79 (sub 0) OBJ File: ''
# www.blender.org
mtllib Entrance_Backwall.mtl
o Back_wall_Cube.003
v 21.401081 -3.000000 -0.000012
v 17.405500 3.000000 -0.000011
v 17.405500 -3.000000 -0.000010
v -17.405500 -3.000000 0.000013
v -21.401081 3.000000 0.000014
v -21.401081 -3.000000 0.000015
v 2.088745 3.000000 -0.000001
v 2.088745 -3.000000 -0.000000
v -2.088745 3.000000 0.000002
v -2.088745 -3.000000 0.000003
v -17.405500 3.000000 0.000012
v 21.401081 3.000000 -0.000013
vt 4.475671 0.003492
vt 3.732117 0.450255
vt 3.732114 0.003492
vt -2.746085 0.003492
vt -3.489637 0.450255
vt -3.489641 0.003492
vt 0.881736 0.450255
vt 0.881735 0.003492
vt 0.104299 0.450255
vt 0.104294 0.003492
vt -2.746085 0.450255
vt 4.475675 0.450255
vn 0.0000 0.0000 1.0000
usemtl None
s 1
f 1/1/1 2/2/1 3/3/1
f 4/4/1 5/5/1 6/6/1
f 3/3/1 7/7/1 8/8/1
f 8/8/1 9/9/1 10/10/1
f 10/10/1 11/11/1 4/4/1
f 1/1/1 12/12/1 2/2/1
f 4/4/1 11/11/1 5/5/1
f 3/3/1 2/2/1 7/7/1
f 8/8/1 7/7/1 9/9/1
f 10/10/1 9/9/1 11/11/1
