# Blender v2.79 (sub 0) OBJ File: ''
# www.blender.org
mtllib Entrance_Door.mtl
o Door_Cube.017
v -2.088745 3.000000 0.336964
v -2.088745 -3.000000 -0.336964
v -2.088745 3.000000 -0.336964
v 2.088745 -3.000000 0.336964
v 2.088745 3.000000 -0.336964
v 2.088745 -3.000000 -0.336964
v -2.088745 -3.000000 0.336964
v 2.088745 3.000000 0.336964
vt 0.524380 0.468451
vt 0.623487 -0.000698
vt 0.623487 0.468451
vt 0.425263 0.468451
vt 0.524380 -0.000698
vt 0.524380 0.468451
vt 0.457960 0.740211
vt 0.357930 0.788986
vt 0.357930 0.740211
vt 0.669270 0.463782
vt 0.878079 0.000316
vt 0.878079 0.463782
vt 0.524380 -0.000698
vt 0.425263 -0.000698
vt 0.457960 0.788986
vt 0.669270 0.000316
vn 1.0000 -0.0000 0.0000
vn -1.0000 0.0000 0.0000
vn 0.0000 1.0000 0.0000
vn 0.0000 -1.0000 0.0000
usemtl None
s 1
f 1/1/1 2/2/1 3/3/1
f 4/4/2 5/5/2 6/6/2
f 7/7/3 6/8/3 2/9/3
f 8/10/4 3/11/4 5/12/4
f 1/1/1 7/13/1 2/2/1
f 4/4/2 8/14/2 5/5/2
f 7/7/3 4/15/3 6/8/3
f 8/10/4 1/16/4 3/11/4
