# Blender v2.79 (sub 0) OBJ File: 'Map3.blend'
# www.blender.org
mtllib Entrance_Door.mtl
o Door_Cube.017
v 2.088745 3.000000 -0.336964
v 2.088745 -3.000000 -0.336964
v -2.088745 3.000000 -0.336964
v -2.088745 -3.000000 -0.336964
v -2.088745 -3.000000 0.336964
v 2.088745 -3.000000 0.336964
v 2.088745 3.000000 0.336964
v -2.088745 3.000000 0.336964
vt 0.990674 1.000000
vt 1.000000 0.000000
vt 1.000000 1.000000
vt 0.981347 1.000000
vt 0.990674 0.000000
vt 0.990674 1.000000
vt 0.626548 0.460276
vt 0.609316 0.442667
vt 0.626548 0.442667
vt 0.609316 0.460276
vt 0.626548 0.477884
vt 0.609316 0.477884
vt 0.990674 0.000000
vt 0.981347 0.000000
vt 0.609316 0.460276
vt 0.626548 0.460276
vn 1.0000 0.0000 0.0000
vn -1.0000 0.0000 0.0000
vn 0.0000 1.0000 0.0000
vn 0.0000 -1.0000 0.0000
usemtl None
s off
f 8/1/1 4/2/1 3/3/1
f 6/4/2 1/5/2 2/6/2
f 5/7/3 2/8/3 4/9/3
f 7/10/4 3/11/4 1/12/4
f 8/1/1 5/13/1 4/2/1
f 6/4/2 7/14/2 1/5/2
f 5/7/3 6/15/3 2/8/3
f 7/10/4 8/16/4 3/11/4
