# Blender v2.79 (sub 0) OBJ File: 'Map3.blend'
# www.blender.org
mtllib Entrance_Wall_Right2.mtl
o Right_wall_2_Cube.015
v 2.663720 -3.000000 -1.394855
v 2.663720 3.000000 -1.394855
v -1.331860 -3.000000 -1.394855
v -1.331860 3.000000 -1.394855
v -1.331860 3.000000 2.789709
v -1.331860 -3.000000 2.789709
vt 0.948385 1.000000
vt 0.964866 0.000000
vt 0.964866 1.000000
vt 0.832566 1.000000
vt 0.890475 0.000000
vt 0.890476 1.000000
vt 0.948385 0.000000
vt 0.832566 0.000000
vn 0.0000 0.0000 -1.0000
vn -1.0000 0.0000 0.0000
usemtl None
s off
f 3/1/1 2/2/1 1/3/1
f 6/4/2 4/5/2 3/6/2
f 3/1/1 4/7/1 2/2/1
f 6/4/2 5/8/2 4/5/2
