# Blender v2.79 (sub 0) OBJ File: ''
# www.blender.org
mtllib Entrance_Wall3.mtl
o Left_wall_3_Cube.001
v -7.658378 -3.000000 1.000000
v 7.658378 3.000000 1.000000
v 7.658378 -3.000000 1.000000
v -7.658378 3.000000 1.000000
v -7.658378 -3.000000 -1.000000
v -7.658378 3.000000 -1.000000
v 7.658378 3.000000 -1.000000
v 7.658378 -3.000000 -1.000000
vt -0.186680 0.464448
vt 1.246967 0.464448
vt 1.246967 0.003200
vt -0.186680 0.003200
vt -0.186680 0.464448
vt 1.246967 0.003200
vt 1.246967 0.464448
vt -0.186680 0.003200
vt 0.999969 0.000031
vt 0.000030 0.092196
vt 0.000030 0.000030
vt 0.000030 0.092196
vt 0.999969 0.000030
vt 0.999970 0.092196
vt 0.666651 0.466648
vt 0.333349 0.002161
vt 0.666650 0.002161
vt 0.333349 0.009466
vt 0.666651 0.464012
vt 0.333349 0.464012
vt 0.999970 0.092196
vt 0.000030 0.000031
vt 0.333350 0.466648
vt 0.666651 0.009466
vn 0.0000 -0.0000 1.0000
vn 0.0000 0.0000 -1.0000
vn 0.7071 0.7071 0.0000
vn -0.7071 0.7071 0.0000
vn -0.7071 -0.7071 -0.0000
vn 0.7071 -0.7071 -0.0000
usemtl None
s 1
f 1/1/1 3/2/1 2/3/1
f 1/1/1 2/3/1 4/4/1
f 5/5/2 7/6/2 8/7/2
f 5/5/2 6/8/2 7/6/2
f 2/9/3 6/10/4 4/11/4
f 1/12/5 8/13/6 3/14/6
f 3/15/6 7/16/3 2/17/3
f 4/18/4 5/19/5 1/20/5
f 2/9/3 7/21/3 6/10/4
f 1/12/5 5/22/5 8/13/6
f 3/15/6 8/23/6 7/16/3
f 4/18/4 6/24/4 5/19/5
