# Blender v2.79 (sub 0) OBJ File: 'Map3.blend'
# www.blender.org
mtllib Entrance_Wall2.mtl
o Left_wall_2_Cube.016
v -2.663720 -3.000000 -1.394855
v -2.663720 3.000000 -1.394855
v 1.331860 -3.000000 -1.394855
v 1.331860 3.000000 -1.394855
v 1.331860 3.000000 2.789709
v 1.331860 -3.000000 2.789709
vt 0.964866 1.000000
vt 0.981347 0.000000
vt 0.981347 1.000000
vt 0.890476 1.000000
vt 0.948385 0.000000
vt 0.948385 1.000000
vt 0.964866 0.000000
vt 0.890476 0.000000
vn 0.0000 0.0000 -1.0000
vn 1.0000 0.0000 0.0000
usemtl None
s off
f 1/1/1 4/2/1 3/3/1
f 5/4/2 3/5/2 4/6/2
f 1/1/1 2/7/1 4/2/1
f 5/4/2 6/8/2 3/5/2
