# Blender v2.79 (sub 0) OBJ File: ''
# www.blender.org
mtllib Entrance_Wall2.mtl
o Left_wall_2_Cube.016
v -2.663720 -3.000000 -1.394855
v 1.331860 3.000000 -1.394855
v 1.331860 -3.000000 -1.394855
v 1.331860 3.000000 2.789710
v -2.663720 3.000000 -1.394855
v 1.331860 -3.000000 2.789709
vt 0.911484 0.449487
vt 1.136631 0.016900
vt 1.136631 0.449487
vt -0.104755 0.449487
vt 0.686336 0.016900
vt 0.686336 0.449487
vt 0.911484 0.016900
vt -0.104755 0.016900
vn 0.0000 0.0000 -1.0000
vn 1.0000 0.0000 0.0000
usemtl None
s 1
f 1/1/1 2/2/1 3/3/1
f 4/4/2 3/5/2 2/6/2
f 1/1/1 5/7/1 2/2/1
f 4/4/2 6/8/2 3/5/2
