# Blender v2.79 (sub 0) OBJ File: ''
# www.blender.org
mtllib Entrance_Backwall.mtl
o Back_wall_Cube.003
v 21.401081 -3.000000 -0.000012
v 17.405500 3.000000 -0.000011
v 17.405500 -3.000000 -0.000010
v -17.405500 -3.000000 0.000013
v -21.401081 3.000000 0.000014
v -21.401081 -3.000000 0.000015
v 2.088745 3.000000 -0.000001
v 2.088745 -3.000000 -0.000000
v -2.088745 3.000000 0.000002
v -2.088745 -3.000000 0.000003
v -17.405500 3.000000 0.000012
v 21.401081 3.000000 -0.000013
vt 0.176552 1.000000
vt 0.193033 0.000000
vt 0.193033 1.000000
vt 0.336623 1.000000
vt 0.353104 0.000000
vt 0.353104 1.000000
vt 0.256212 0.000000
vt 0.256212 1.000000
vt 0.273444 0.000000
vt 0.273444 1.000000
vt 0.336623 0.000000
vt 0.176552 0.000000
vn 0.0000 0.0000 1.0000
usemtl None
s 1
f 1/1/1 2/2/1 3/3/1
f 4/4/1 5/5/1 6/6/1
f 3/3/1 7/7/1 8/8/1
f 8/8/1 9/9/1 10/10/1
f 10/10/1 11/11/1 4/4/1
f 1/1/1 12/12/1 2/2/1
f 4/4/1 11/11/1 5/5/1
f 3/3/1 2/2/1 7/7/1
f 8/8/1 7/7/1 9/9/1
f 10/10/1 9/9/1 11/11/1
