# Blender v2.79 (sub 0) OBJ File: ''
# www.blender.org
mtllib Frame.mtl
o Mesh1_Group1_Model_Mesh1_Group1_Model_Wood_Cherry_Original6_
v -0.313708 0.391677 0.002075
v 0.296292 0.391677 0.002075
v 0.296292 -0.358323 -0.037925
v 0.296292 -0.358323 -0.007925
v -0.313708 -0.358323 -0.037925
v 0.361057 -0.412049 -0.037925
v 0.361057 -0.412049 -0.027925
v -0.313708 0.391677 -0.037925
v 0.296292 0.391677 -0.037925
v 0.361057 0.447951 -0.037925
v -0.368943 0.447951 -0.037925
v -0.368943 -0.412049 -0.037925
v -0.313708 0.391677 -0.007925
v 0.361057 0.447951 -0.027925
v -0.268114 0.347159 -0.027925
v 0.261886 0.347159 -0.027925
v 0.261886 0.347159 -0.017925
v -0.268114 0.347159 -0.017925
v -0.268114 -0.312841 -0.027925
v -0.268114 -0.312841 -0.017925
v -0.278968 0.363108 -0.017925
v -0.278968 -0.326892 -0.017925
v 0.261886 -0.312841 -0.017925
v 0.271032 -0.326892 -0.017925
v 0.271032 0.363108 -0.017925
v -0.313708 -0.358323 -0.007925
v -0.313708 -0.358323 0.002075
v -0.368943 0.447951 -0.027925
v -0.368943 -0.412049 -0.027925
v -0.368943 0.447951 -0.017925
v -0.368943 -0.412049 -0.017925
v -0.385433 0.468458 -0.017925
v -0.385433 -0.431542 -0.017925
v 0.361057 -0.412049 -0.017925
v 0.384567 -0.431542 -0.017925
v -0.385433 -0.431542 -0.047925
v 0.361057 0.447951 -0.017925
v 0.296292 0.391677 -0.007925
v 0.261886 -0.312841 -0.027925
v -0.385433 0.468458 -0.047925
v 0.384567 0.468458 -0.017925
v 0.296292 -0.358323 0.002075
v 0.384567 -0.431542 -0.047925
v 0.384567 0.468458 -0.047925
vt 1.000000 0.000000
vt 0.000000 1.000000
vt 0.000000 0.000000
vt 1.000000 1.000000
vt -1.257500 0.016400
vt -1.547300 0.021900
vt -1.547300 0.016400
vt -0.016400 0.898500
vt -0.021900 0.537600
vt -0.016400 0.537600
vt -1.553200 -6.123300
vt -1.657900 0.394500
vt -1.657900 -5.969500
vt -1.553200 0.530000
vt -6.768300 0.394500
vt -6.856500 0.530000
vt -6.856500 -6.123300
vt 1.013300 0.819000
vt 1.275100 5.777400
vt 1.051200 5.582000
vt -1.238700 0.027300
vt -1.572200 0.032800
vt -1.572200 0.027300
vt 5.566000 7.330700
vt 6.053200 13.995500
vt 5.566000 14.462200
vt -0.021900 0.483400
vt -0.016400 0.953600
vt -0.021900 0.953600
vt -1.611400 -6.035500
vt -1.730700 0.331800
vt -1.730700 -5.887200
vt -1.611400 0.472700
vt -7.009700 0.331800
vt -7.179700 0.472700
vt -7.179700 -6.035600
vt 6.486500 -3.476800
vt 3.688100 -1.082600
vt 3.688100 -3.476800
vt -0.070300 -6.077100
vt -0.281200 -12.403600
vt -0.070300 -12.403600
vt -2.050300 7.454100
vt -2.201400 3.577600
vt -2.050300 3.577600
vt -7.009700 -5.887300
vt 0.016400 0.953600
vt 0.021900 0.483400
vt 0.021900 0.953600
vt -1.602400 0.021900
vt -1.203200 0.016400
vt -1.203200 0.021900
vt 1.203200 0.021900
vt 1.602400 0.016400
vt 1.602400 0.021900
vt 9.523100 -10.196100
vt 9.960500 -5.324600
vt 9.523100 -5.729100
vt 19.392500 24.421000
vt 20.373301 12.791400
vt 20.373301 25.235201
vt -5.933100 2.466400
vt 2.712200 2.351100
vt 2.712200 2.466400
vt -14.249500 -2.709100
vt -14.016200 14.785100
vt -14.249400 14.785100
vt -15.276600 -19.727600
vt -15.745200 -11.328500
vt -15.745200 -19.393700
vt -6.768300 -5.969500
vt 0.016400 0.537600
vt 0.021900 0.898500
vt 0.016400 0.898500
vt 1.547300 0.016400
vt 1.257500 0.021900
vt 1.257500 0.016400
vt -1.257500 0.021900
vt -0.021900 0.898500
vt 1.234000 0.600200
vt -1.238700 0.032800
vt 6.053100 7.776200
vt -0.016400 0.483400
vt 6.486500 -1.082600
vt -0.281200 -6.077100
vt -2.201400 7.454100
vt 0.016400 0.483400
vt -1.602400 0.016400
vt 1.203200 0.016400
vt 9.960500 -10.670400
vt 19.392500 13.568800
vt -5.933100 2.351100
vt -14.016200 -2.709100
vt -15.276600 -10.961100
vt 0.021900 0.537600
vt 1.547300 0.021900
vt 1.000000 1.000000
vt 0.000000 0.000000
vt 1.000000 0.000000
vt 1.000000 -0.000000
vt 0.057000 1.000000
vt 0.000000 -0.000000
vt 0.958600 1.000000
vt 1.000000 0.000000
vt 0.000000 1.000000
vt 0.000000 0.000000
vt 1.000000 1.000000
vt 0.911300 1.000000
vt 0.000000 0.000000
vt 1.000000 0.000000
vt 0.075700 1.000000
vt 0.057000 0.000000
vt 1.000000 1.000000
vt 0.000000 1.000000
vt 0.958600 0.000000
vt -3.475400 1.574800
vt -3.475400 0.393700
vt -27.491199 0.393700
vt -0.393700 4.515300
vt -0.787400 1.202400
vt -0.393700 1.202400
vt -27.491199 32.410198
vt -29.665800 0.767500
vt -29.665800 34.625702
vt 27.491199 1.574800
vt 27.491199 0.393700
vt 3.475400 0.393700
vt 1.574800 2.882600
vt 0.393700 2.882600
vt 0.393700 32.410198
vt -29.665800 0.393700
vt -29.665800 0.787400
vt -0.925600 0.787400
vt -0.393700 0.767500
vt -0.787400 0.767500
vt -0.787400 34.625702
vt 29.665800 0.787400
vt 29.665800 0.393700
vt 0.925600 0.393700
vt -0.393700 18.634199
vt -0.787400 22.012100
vt -1.574800 18.634199
vt -27.491199 1.574800
vt -1.574800 4.515300
vt -3.475400 32.410198
vt -0.925600 34.625702
vt -3.475400 2.882600
vt -0.925600 0.767500
vt -27.491199 2.882600
vt 3.475400 1.574800
vt 1.574800 32.410198
vt -0.925600 0.393700
vt -0.393700 34.625702
vt 0.925600 0.787400
vt -0.393700 22.012100
vn 0.0000 1.0000 0.0000
vn 0.0000 -1.0000 0.0000
vn 1.0000 -0.0000 0.0000
vn 0.0000 0.0000 1.0000
vn -0.6208 -0.0000 0.7840
vn -0.3405 0.0000 0.9403
vn -0.0000 -0.0000 -1.0000
vn -1.0000 -0.0000 0.0000
vn 0.0000 0.3349 0.9423
vn 0.2951 0.0000 0.9555
vn 0.4989 0.0000 0.8666
vn 0.0000 0.5368 0.8437
vn 0.0000 -0.3489 0.9372
vn 0.0000 -0.5735 0.8192
vn 0.3120 0.9501 0.0000
vn 0.2613 0.7243 -0.6381
vn 0.9877 -0.1563 0.0000
vn 0.7889 -0.2846 -0.5447
vn 0.2701 -0.7227 -0.6361
vn 0.9842 0.1769 0.0000
vn 0.3224 -0.9466 0.0000
vn 0.7852 0.2935 -0.5452
f 40/1/1 41/2/1 44/3/1
f 40/1/1 32/4/1 41/2/1
f 16/5/2 18/6/2 15/7/2
f 15/8/3 20/9/3 19/10/3
f 21/11/4 20/12/4 18/13/4
f 22/14/4 20/12/4 21/11/4
f 20/12/4 22/14/4 23/15/4
f 24/16/4 23/15/4 22/14/4
f 23/15/4 24/16/4 25/17/4
f 24/18/5 2/19/5 25/20/5
f 4/21/2 27/22/2 26/23/2
f 29/24/6 13/25/6 28/26/6
f 31/27/3 28/28/3 30/29/3
f 32/30/4 31/31/4 30/32/4
f 33/33/4 31/31/4 32/30/4
f 31/31/4 33/33/4 34/34/4
f 35/35/4 34/34/4 33/33/4
f 34/34/4 35/35/4 41/36/4
f 40/37/7 43/38/7 36/39/7
f 36/40/8 32/41/8 40/42/8
f 43/43/2 33/44/2 36/45/2
f 32/30/4 30/32/4 41/36/4
f 37/46/4 41/36/4 30/32/4
f 34/34/4 41/36/4 37/46/4
f 14/47/8 34/48/8 37/49/8
f 30/50/2 14/51/2 37/52/2
f 34/53/1 29/54/1 31/55/1
f 38/56/9 28/57/9 13/58/9
f 38/59/10 7/60/10 14/61/10
f 38/62/3 42/63/3 4/64/3
f 26/65/8 1/66/8 13/67/8
f 1/68/11 22/69/11 21/70/11
f 21/11/4 18/13/4 25/17/4
f 17/71/4 25/17/4 18/13/4
f 23/15/4 25/17/4 17/71/4
f 39/72/8 17/73/8 16/74/8
f 19/75/1 23/76/1 39/77/1
f 16/5/2 17/78/2 18/6/2
f 15/8/3 18/79/3 20/9/3
f 24/18/5 42/80/5 2/19/5
f 4/21/2 42/81/2 27/22/2
f 29/24/6 26/82/6 13/25/6
f 31/27/3 29/83/3 28/28/3
f 40/37/7 44/84/7 43/38/7
f 36/40/8 33/85/8 32/41/8
f 43/43/2 35/86/2 33/44/2
f 14/47/8 7/87/8 34/48/8
f 30/50/2 28/88/2 14/51/2
f 34/53/1 7/89/1 29/54/1
f 38/56/9 14/90/9 28/57/9
f 38/59/10 4/91/10 7/60/10
f 38/62/3 2/92/3 42/63/3
f 26/65/8 27/93/8 1/66/8
f 1/68/11 27/94/11 22/69/11
f 39/72/8 23/95/8 17/73/8
f 19/75/1 20/96/1 23/76/1
f 44/97/3 35/98/3 43/99/3
f 44/97/3 41/2/3 35/98/3
f 42/100/12 22/101/12 27/102/12
f 42/100/12 24/103/12 22/101/12
f 13/104/1 2/105/1 38/106/1
f 13/104/1 1/107/1 2/105/1
f 4/108/13 29/109/13 7/110/13
f 4/108/13 26/111/13 29/109/13
f 21/112/14 2/113/14 1/114/14
f 21/112/14 25/115/14 2/113/14
f 4/116/15 3/117/16 5/118/1
f 3/119/16 7/120/17 6/121/18
f 8/122/7 12/123/7 11/124/7
f 13/125/2 8/126/2 9/127/19
f 26/128/3 5/129/3 8/130/3
f 11/131/1 28/132/1 14/133/20
f 12/134/8 29/135/8 28/136/8
f 29/137/2 12/138/2 6/139/18
f 9/140/19 14/141/20 38/142/21
f 4/116/15 5/118/1 26/143/1
f 3/119/16 4/144/15 7/120/17
f 8/122/7 11/124/7 9/145/19
f 9/145/19 11/124/7 10/146/22
f 12/123/7 3/147/16 6/148/18
f 12/123/7 5/149/7 3/147/16
f 12/123/7 8/122/7 5/149/7
f 13/125/2 9/127/19 38/150/21
f 26/128/3 8/130/3 13/151/3
f 11/131/1 14/133/20 10/152/22
f 12/134/8 28/136/8 11/153/8
f 29/137/2 6/139/18 7/154/17
f 9/140/19 10/155/22 14/141/20
