# Blender v2.79 (sub 0) OBJ File: ''
# www.blender.org
mtllib Main_Wall.mtl
o Left_wall_2_Left_wall_1_Cube.001
v -1.000000 -2.999996 -15.000001
v -1.000000 -3.000004 14.999999
v -1.000000 2.999996 15.000001
v -1.000000 3.000004 -14.999999
v 1.000000 -2.999996 -15.000001
v 1.000000 2.999996 15.000001
v 1.000000 -3.000004 14.999999
v 1.000000 3.000004 -14.999999
vt 1.767896 0.009440
vt -0.779310 0.009440
vt -0.779310 0.467652
vt 1.767896 0.467652
vt 1.767896 0.009440
vt -0.779310 0.467652
vt -0.779310 0.009440
vt 1.767896 0.467652
vt 0.609614 0.456997
vt 0.387547 0.007709
vt 0.609614 0.007709
vt 0.387547 0.007709
vt 0.609613 0.456997
vt 0.387547 0.456997
vt 0.666651 0.464191
vt 0.333349 0.003531
vt 0.666651 0.003531
vt 0.333349 0.003531
vt 0.666651 0.464190
vt 0.333349 0.464190
vt 0.387547 0.456997
vt 0.609614 0.007709
vt 0.333349 0.464191
vt 0.666651 0.003531
vn -1.0000 0.0000 0.0000
vn 1.0000 0.0000 0.0000
vn 0.0000 0.7071 0.7071
vn 0.0000 0.7071 -0.7071
vn 0.0000 -0.7071 -0.7071
vn 0.0000 -0.7071 0.7071
usemtl None.001
s 1
f 1/1/1 2/2/1 3/3/1
f 1/1/1 3/3/1 4/4/1
f 5/5/2 6/6/2 7/7/2
f 5/5/2 8/8/2 6/6/2
f 3/9/3 8/10/4 4/11/4
f 1/12/5 7/13/6 2/14/6
f 2/15/6 6/16/3 3/17/3
f 4/18/4 5/19/5 1/20/5
f 3/9/3 6/21/3 8/10/4
f 1/12/5 5/22/5 7/13/6
f 2/15/6 7/23/6 6/16/3
f 4/18/4 8/24/4 5/19/5
