# Blender v2.79 (sub 0) OBJ File: ''
# www.blender.org
mtllib Outside_Fence.mtl
o Cube_Cube.001
v -0.098687 0.986863 14.505868
v -0.098687 -0.986863 -14.505868
v -0.098687 -0.986867 14.505868
v -0.098687 0.986867 -14.505868
v 0.098687 -0.986863 -14.505868
v 0.098687 0.986867 -14.505868
v 0.098687 -0.986867 14.505868
v 0.098687 0.986863 14.505868
vt -2.657284 0.020820
vt 3.657284 0.979180
vt -2.657283 0.979180
vt 0.484568 0.010288
vt 0.571653 0.999672
vt 0.484568 0.999672
vt -2.657284 0.020820
vt 3.657284 0.979180
vt -2.657283 0.979180
vt 0.484568 0.010288
vt 0.571653 0.999672
vt 0.484568 0.999672
vt 3.657039 0.569273
vt -2.657039 0.430727
vt 3.657037 0.430727
vt 3.657039 0.569273
vt -2.657039 0.430727
vt 3.657037 0.430727
vt 3.657284 0.020820
vt 0.571653 0.010288
vt 3.657284 0.020820
vt 0.571653 0.010288
vt -2.657038 0.569273
vt -2.657038 0.569273
vn -1.0000 0.0000 0.0000
vn 0.0000 0.0000 -1.0000
vn 1.0000 0.0000 0.0000
vn 0.0000 0.0000 1.0000
vn 0.0000 -1.0000 -0.0000
vn 0.0000 1.0000 0.0000
usemtl None
s 1
f 1/1/1 2/2/1 3/3/1
f 4/4/2 5/5/2 2/6/2
f 6/7/3 7/8/3 5/9/3
f 8/10/4 3/11/4 7/12/4
f 5/13/5 3/14/5 2/15/5
f 4/16/6 8/17/6 6/18/6
f 1/1/1 4/19/1 2/2/1
f 4/4/2 6/20/2 5/5/2
f 6/7/3 8/21/3 7/8/3
f 8/10/4 1/22/4 3/11/4
f 5/13/5 7/23/5 3/14/5
f 4/16/6 1/24/6 8/17/6
