# Blender v2.79 (sub 0) OBJ File: ''
# www.blender.org
mtllib Side_Wall.mtl
o Left_wall_2_Left_wall_1_Cube.001
v 15.300825 -2.999990 -0.999998
v -15.300709 -3.000010 -1.000003
v -15.300825 2.999990 -1.000002
v 15.300709 3.000010 -0.999997
v 15.300825 -2.999990 1.000002
v -15.300825 2.999990 0.999998
v -15.300709 -3.000010 0.999997
v 15.300709 3.000010 1.000003
vt 1.767896 0.009440
vt -0.779310 0.009440
vt -0.779310 0.467652
vt 1.767896 0.467652
vt 1.767896 0.009440
vt -0.779310 0.467652
vt -0.779310 0.009440
vt 1.767896 0.467652
vt 0.609614 0.456997
vt 0.387547 0.007709
vt 0.609614 0.007709
vt 0.387547 0.007709
vt 0.609613 0.456997
vt 0.387547 0.456997
vt 0.666651 0.464191
vt 0.333349 0.003531
vt 0.666651 0.003531
vt 0.333349 0.003531
vt 0.666651 0.464190
vt 0.333349 0.464190
vt 0.387547 0.456997
vt 0.609614 0.007709
vt 0.333349 0.464191
vt 0.666651 0.003531
vn 0.0000 0.0000 -1.0000
vn -0.0000 -0.0000 1.0000
vn -0.7071 0.7071 0.0000
vn 0.7071 0.7071 0.0000
vn 0.7071 -0.7071 -0.0000
vn -0.7071 -0.7071 -0.0000
usemtl None.001
s 1
f 1/1/1 2/2/1 3/3/1
f 1/1/1 3/3/1 4/4/1
f 5/5/2 6/6/2 7/7/2
f 5/5/2 8/8/2 6/6/2
f 3/9/3 8/10/4 4/11/4
f 1/12/5 7/13/6 2/14/6
f 2/15/6 6/16/3 3/17/3
f 4/18/4 5/19/5 1/20/5
f 3/9/3 6/21/3 8/10/4
f 1/12/5 5/22/5 7/13/6
f 2/15/6 7/23/6 6/16/3
f 4/18/4 8/24/4 5/19/5
