# Blender v2.79 (sub 0) OBJ File: ''
# www.blender.org
mtllib Side_Roof.mtl
o Roof_Plane.001
v -17.521700 0.000005 -33.010269
v 17.521700 -0.000005 33.010269
v -17.521700 -0.000005 33.010269
v 17.521700 1.999995 33.010269
v -17.521700 2.000005 -33.010269
v -17.521700 1.999995 33.010269
v 17.521700 0.000005 -33.010269
v 17.521700 2.000005 -33.010269
vt 0.177544 0.017491
vt 0.822456 0.452601
vt 0.177544 0.452601
vt 0.191796 0.462662
vt 0.808204 0.007430
vt 0.808204 0.462662
vt 0.380527 0.013605
vt 0.619473 0.456487
vt 0.380527 0.456487
vt 0.380527 0.013605
vt 0.619473 0.456487
vt 0.380527 0.456487
vt 1.007874 0.272161
vt 0.007874 0.312806
vt 0.007874 0.272161
vt 1.007874 0.272161
vt 0.007874 0.312806
vt 0.007874 0.272161
vt 0.822456 0.017491
vt 0.191796 0.007430
vt 0.619473 0.013605
vt 0.619473 0.013605
vt 1.007874 0.312806
vt 1.007874 0.312806
vn 0.0000 -1.0000 -0.0000
vn 0.0000 1.0000 0.0000
vn 1.0000 0.0000 0.0000
vn -1.0000 0.0000 0.0000
vn 0.0000 0.0000 -1.0000
vn 0.0000 0.0000 1.0000
usemtl None
s 1
f 1/1/1 2/2/1 3/3/1
f 4/4/2 5/5/2 6/6/2
f 7/7/3 4/8/3 2/9/3
f 3/10/4 5/11/4 1/12/4
f 1/13/5 8/14/5 7/15/5
f 2/16/6 6/17/6 3/18/6
f 1/1/1 7/19/1 2/2/1
f 4/4/2 8/20/2 5/5/2
f 7/7/3 8/21/3 4/8/3
f 3/10/4 6/22/4 5/11/4
f 1/13/5 5/23/5 8/14/5
f 2/16/6 4/24/6 6/17/6
